<svg xmlns="http://www.w3.org/2000/svg" width="41.376" height="41.376" viewBox="0 0 41.376 41.376">
<g transform="translate(-1809 -12420)">
<g transform="translate(1810 12421)" fill="#212121">
<path d="M19.688,0A19.688,19.688,0,1,1,0,19.688,19.688,19.688,0,0,1,19.688,0Z" stroke="none"></path>
<path d="M 19.68804931640625 0 C 8.814640045166016 0 0 8.814640045166016 0 19.68804931640625 C 0 30.56145858764648 8.814640045166016 39.3760986328125 19.68804931640625 39.3760986328125 C 30.56145858764648 39.3760986328125 39.3760986328125 30.56145858764648 39.3760986328125 19.68804931640625 C 39.3760986328125 8.814640045166016 30.56145858764648 0 19.68804931640625 0 M 19.68804931640625 -1 C 22.4804801940918 -1 25.18990898132324 -0.4528694152832031 27.74107933044434 0.6261787414550781 C 30.20471954345703 1.668209075927734 32.41707992553711 3.159759521484375 34.31671142578125 5.059391021728516 C 36.21633911132813 6.959018707275391 37.70788955688477 9.171379089355469 38.74991989135742 11.63501930236816 C 39.8289680480957 14.18618965148926 40.3760986328125 16.8956184387207 40.3760986328125 19.68804931640625 C 40.3760986328125 22.4804801940918 39.8289680480957 25.18990898132324 38.74991989135742 27.74107933044434 C 37.70788955688477 30.20471954345703 36.21633911132813 32.41707992553711 34.31671142578125 34.31671142578125 C 32.41707992553711 36.21633911132813 30.20471954345703 37.70788955688477 27.74107933044434 38.74991989135742 C 25.18990898132324 39.8289680480957 22.4804801940918 40.3760986328125 19.68804931640625 40.3760986328125 C 16.8956184387207 40.3760986328125 14.18618965148926 39.8289680480957 11.63501930236816 38.74991989135742 C 9.171379089355469 37.70788955688477 6.959018707275391 36.21633911132813 5.059391021728516 34.31671142578125 C 3.159759521484375 32.41707992553711 1.668209075927734 30.20471954345703 0.6261787414550781 27.74107933044434 C -0.4528694152832031 25.18990898132324 -1 22.4804801940918 -1 19.68804931640625 C -1 16.8956184387207 -0.4528694152832031 14.18618965148926 0.6261787414550781 11.63501930236816 C 1.668209075927734 9.171379089355469 3.159759521484375 6.959018707275391 5.059391021728516 5.059391021728516 C 6.959018707275391 3.159759521484375 9.171379089355469 1.668209075927734 11.63501930236816 0.6261787414550781 C 14.18618965148926 -0.4528694152832031 16.8956184387207 -1 19.68804931640625 -1 Z" stroke="none" fill="rgba(255,255,255,0.4)"></path>
</g>
<path d="M469.924,9937.849l-8.274-8.273,8.274-8.274" transform="translate(11759.349 11974.85) rotate(90)" fill="none" stroke="#fff" stroke-width="1"></path>
</g>
</svg>