<svg width="85" height="25" viewBox="0 0 85 25" fill="none" xmlns="http://www.w3.org/2000/svg">
<path d="M64.4073 0.0117188H63.8792V23.4517H64.4073V0.0117188Z" fill="#353535"/>
<path d="M6.02712 0.733456C5.13075 0.752934 4.24131 0.88895 3.38323 1.13778C2.72981 1.33302 2.14095 1.68808 1.67485 2.16786C1.21922 2.66313 0.902517 3.26106 0.754438 3.90553C0.563965 4.74841 0.48678 5.61112 0.524754 6.47272H0V0.126953H15.124V6.47111H14.5942C14.6088 5.60461 14.5261 4.73912 14.3477 3.88949C14.2156 3.24567 13.919 2.64318 13.4843 2.13578C13.0373 1.65276 12.4558 1.30158 11.8078 1.12335C10.9242 0.883013 10.0119 0.752505 9.09349 0.735052V21.8197C9.09349 22.2914 9.25109 22.5899 9.56963 22.7134C9.91068 22.8436 10.278 22.8984 10.6443 22.8739V23.4467H4.40592V22.8739C4.97147 22.8963 5.38278 22.8402 5.63985 22.7054C5.89803 22.5706 6.02712 22.1984 6.02712 21.5919V0.733456Z" fill="#353535"/>
<path d="M57.2048 0.126953V0.802448L56.9181 0.76875C56.4476 0.76875 56.1302 0.881061 55.9659 1.10569C55.7757 1.38645 55.6326 1.69396 55.5417 2.01705L49.7308 23.4386H48.1096C47.2859 20.4703 46.4516 17.5239 45.6066 14.5995C44.7616 11.675 43.9155 8.72863 43.0683 5.76032L38.3087 23.4386H36.6522L34.2548 14.9027L30.9403 3.18993C30.8699 2.94284 30.7939 2.67543 30.7123 2.38769C30.6331 2.10883 30.5206 1.83964 30.377 1.58544C30.2439 1.34721 30.0647 1.1354 29.8489 0.961291C29.6093 0.785162 29.3125 0.695408 29.0106 0.707779V0.126953H35.145V0.701364C34.835 0.699017 34.5262 0.738995 34.228 0.820095C33.9463 0.898715 33.8055 1.141 33.8055 1.54533C33.8375 1.85799 33.8935 2.16796 33.9732 2.47272C34.0905 2.97867 34.2492 3.62047 34.4493 4.39811C34.6493 5.17576 34.8785 6.05342 35.1367 7.03109C35.3948 8.00769 35.6592 9.00247 35.9297 10.0154C36.2001 11.0284 36.4762 12.0408 36.7579 13.0527C37.0395 14.0657 37.2983 14.999 37.5341 15.8526C37.7699 16.7062 37.975 17.4426 38.1494 18.062C38.3271 18.6813 38.4495 19.1258 38.5199 19.3953L42.0808 5.83253C42.1971 5.45547 42.2911 5.07246 42.3625 4.68531C42.4337 4.29538 42.469 3.90024 42.4681 3.50441C42.4627 3.22184 42.4335 2.94015 42.3809 2.66205C42.3256 2.33766 42.2311 2.02052 42.0993 1.717C41.9779 1.43716 41.7976 1.18428 41.5695 0.97413C41.4601 0.874478 41.3294 0.798761 41.1864 0.752219C41.0434 0.705678 40.8915 0.689414 40.7413 0.704566V0.126953H46.5941V0.701364C46.2801 0.700129 45.9667 0.728609 45.6586 0.786397C45.3652 0.842554 45.2193 1.08323 45.2193 1.51163C45.2238 1.7555 45.253 1.99838 45.3065 2.23686C45.3679 2.52705 45.4445 2.81408 45.5362 3.09687C45.63 3.38889 45.7172 3.68251 45.7994 3.97452C45.8815 4.26654 45.967 4.51363 46.0291 4.7158C46.7824 7.16746 47.4642 9.61913 48.0744 12.0708C48.6847 14.5225 49.319 16.9741 49.9773 19.4258L54.3497 2.82732C54.3966 2.58022 54.4486 2.33794 54.5073 2.10208C54.5663 1.86448 54.5961 1.62108 54.5961 1.37685C54.5987 1.30421 54.5822 1.23213 54.5482 1.16712C54.5143 1.10212 54.4639 1.04625 54.4016 1.00461C54.2635 0.910699 54.1083 0.842158 53.944 0.802448C53.7705 0.758424 53.5931 0.72995 53.4142 0.717405C53.2381 0.707778 53.0906 0.701364 52.9749 0.701364V0.126953H57.2048Z" fill="#353535"/>
<path d="M22.3246 0H21.7965V23.44H22.3246V0Z" fill="#353535"/>
<path d="M79.848 0.318654C80.4639 0.367813 81.0671 0.513631 81.6335 0.750263C81.9269 0.875413 82.1985 0.987725 82.445 1.08881C82.6272 1.17388 82.8246 1.22506 83.0267 1.23963C83.1131 1.24304 83.1984 1.22061 83.2708 1.17547C83.3432 1.13032 83.3991 1.06469 83.4308 0.987725C83.5101 0.836546 83.541 0.666295 83.5196 0.498356H84.0477V7.07678H83.5196C83.5037 6.46532 83.4211 5.85712 83.2732 5.2621C83.114 4.55724 82.8716 3.872 82.5506 3.21958C82.2514 2.60351 81.8391 2.04377 81.3334 1.56694C81.1088 1.34673 80.8401 1.17202 80.5435 1.05322C80.2468 0.934417 79.9282 0.873944 79.6066 0.875408C78.911 0.854028 78.2243 1.03047 77.6333 1.38243C77.0848 1.72649 76.6214 2.18097 76.2754 2.71416C75.8941 3.30117 75.6033 3.93776 75.4119 4.60426C75.2005 5.31202 75.0414 6.03314 74.9358 6.76229C74.8324 7.46722 74.7675 8.17684 74.7413 8.88825C74.7179 9.57497 74.7061 10.1767 74.7061 10.6933C74.7061 11.4143 74.724 12.331 74.7598 13.4434C74.7975 14.5889 74.8971 15.7318 75.0582 16.8674C75.2087 17.9751 75.4509 19.0696 75.7825 20.1406C76.0999 21.1514 76.5285 21.9162 77.0684 22.435C77.4307 22.7963 77.8874 23.0583 78.3911 23.1939C78.8913 23.3195 79.4064 23.3815 79.9235 23.3784C80.8411 23.3784 81.5933 23.1367 82.1801 22.6532C82.7787 22.155 83.2551 21.5365 83.575 20.8417C83.9193 20.1073 84.1509 19.3291 84.2623 18.5313C84.3718 17.7768 84.4278 17.0162 84.43 16.2545L84.9933 16.2208V23.7442L84.5004 23.7779C84.4745 23.6129 84.4207 23.4531 84.3411 23.3046C84.3062 23.2308 84.2487 23.1688 84.1763 23.1267C84.104 23.0846 84.02 23.0644 83.9354 23.0688C83.5135 23.0689 83.0932 23.1201 82.6847 23.2212C82.2723 23.3228 81.861 23.4298 81.4508 23.5421C81.0406 23.6544 80.6231 23.7614 80.1984 23.863C79.0064 24.1486 77.8362 23.9737 76.7096 23.5421C75.5596 23.1275 74.5526 22.4154 73.8008 21.4851C73.0606 20.5597 72.4851 19.5237 72.0975 18.4189C71.6938 17.275 71.4278 16.0907 71.3045 14.8891C71.1793 13.7403 71.1144 12.5863 71.11 11.4314C71.1095 10.0668 71.2454 8.70537 71.5157 7.36558C71.7567 6.10187 72.2343 4.89026 72.9257 3.78917C73.5932 2.74617 74.5133 1.87224 75.6081 1.24124C76.3363 0.829154 77.1377 0.549034 77.972 0.414919C78.59 0.302621 79.221 0.270246 79.848 0.318654V0.318654Z" fill="#353535"/>
</svg>
