<svg width="85" height="25" viewBox="0 0 85 25" fill="none" xmlns="http://www.w3.org/2000/svg">
    <path d="M64.4073 0.0117188H63.8792V23.4517H64.4073V0.0117188Z" fill="rgba(242,242,242,.1)" />
    <path
        d="M6.02712 0.733456C5.13075 0.752934 4.24131 0.88895 3.38323 1.13778C2.72981 1.33302 2.14095 1.68808 1.67485 2.16786C1.21922 2.66313 0.902517 3.26106 0.754438 3.90553C0.563965 4.74841 0.48678 5.61112 0.524754 6.47272H0V0.126953H15.124V6.47111H14.5942C14.6088 5.60461 14.5261 4.73912 14.3477 3.88949C14.2156 3.24567 13.919 2.64318 13.4843 2.13578C13.0373 1.65276 12.4558 1.30158 11.8078 1.12335C10.9242 0.883013 10.0119 0.752505 9.09349 0.735052V21.8197C9.09349 22.2914 9.25109 22.5899 9.56963 22.7134C9.91068 22.8436 10.278 22.8984 10.6443 22.8739V23.4467H4.40592V22.8739C4.97147 22.8963 5.38278 22.8402 5.63985 22.7054C5.89803 22.5706 6.02712 22.1984 6.02712 21.5919V0.733456Z"
        fill="rgba(242,242,242,.1)" />
    <path
        d="M57.2049 0.126953V0.802448L56.9182 0.76875C56.4477 0.76875 56.1303 0.881061 55.966 1.10569C55.7758 1.38645 55.6327 1.69396 55.5418 2.01705L49.731 23.4386H48.1098C47.286 20.4703 46.4517 17.5239 45.6067 14.5995C44.7617 11.675 43.9156 8.72863 43.0684 5.76032L38.3088 23.4386H36.6524L34.2549 14.9027L30.9404 3.18993C30.87 2.94284 30.794 2.67543 30.7124 2.38769C30.6332 2.10883 30.5207 1.83964 30.3771 1.58544C30.244 1.34721 30.0648 1.1354 29.849 0.961291C29.6094 0.785162 29.3126 0.695408 29.0107 0.707779V0.126953H35.1452V0.701364C34.8351 0.699017 34.5263 0.738995 34.2281 0.820095C33.9464 0.898715 33.8056 1.141 33.8056 1.54533C33.8376 1.85799 33.8936 2.16796 33.9733 2.47272C34.0906 2.97867 34.2493 3.62047 34.4494 4.39811C34.6495 5.17576 34.8786 6.05342 35.1368 7.03109C35.395 8.00769 35.6593 9.00247 35.9298 10.0154C36.2003 11.0284 36.4763 12.0408 36.758 13.0527C37.0396 14.0657 37.2984 14.999 37.5342 15.8526C37.77 16.7062 37.9751 17.4426 38.1495 18.062C38.3272 18.6813 38.4496 19.1258 38.52 19.3953L42.081 5.83253C42.1972 5.45547 42.2912 5.07246 42.3626 4.68531C42.4338 4.29538 42.4691 3.90024 42.4682 3.50441C42.4628 3.22184 42.4336 2.94015 42.3811 2.66205C42.3257 2.33766 42.2312 2.02052 42.0994 1.717C41.978 1.43716 41.7977 1.18428 41.5696 0.97413C41.4602 0.874478 41.3295 0.798761 41.1865 0.752219C41.0435 0.705678 40.8916 0.689414 40.7414 0.704566V0.126953H46.5942V0.701364C46.2802 0.700129 45.9668 0.728609 45.6587 0.786397C45.3653 0.842554 45.2194 1.08323 45.2194 1.51163C45.2239 1.7555 45.2531 1.99838 45.3066 2.23686C45.368 2.52705 45.4447 2.81408 45.5363 3.09687C45.6302 3.38889 45.7174 3.68251 45.7995 3.97452C45.8817 4.26654 45.9672 4.51363 46.0292 4.7158C46.7825 7.16746 47.4643 9.61913 48.0746 12.0708C48.6848 14.5225 49.3191 16.9741 49.9774 19.4258L54.3498 2.82732C54.3967 2.58022 54.4487 2.33794 54.5074 2.10208C54.5664 1.86448 54.5963 1.62108 54.5963 1.37685C54.5988 1.30421 54.5823 1.23213 54.5484 1.16712C54.5144 1.10212 54.464 1.04625 54.4018 1.00461C54.2636 0.910699 54.1084 0.842158 53.9441 0.802448C53.7706 0.758424 53.5933 0.72995 53.4143 0.717405C53.2383 0.707778 53.0907 0.701364 52.975 0.701364V0.126953H57.2049Z"
        fill="rgba(242,242,242,.1)" />
    <path d="M22.3247 0H21.7966V23.44H22.3247V0Z" fill="rgba(242,242,242,.1)" />
    <path
        d="M79.8479 0.318654C80.4638 0.367813 81.067 0.513631 81.6334 0.750263C81.9268 0.875413 82.1984 0.987725 82.4449 1.08881C82.627 1.17388 82.8245 1.22506 83.0266 1.23963C83.113 1.24304 83.1983 1.22061 83.2707 1.17547C83.3431 1.13032 83.399 1.06469 83.4307 0.987725C83.51 0.836546 83.5409 0.666295 83.5195 0.498356H84.0476V7.07678H83.5195C83.5036 6.46532 83.421 5.85712 83.2731 5.2621C83.1139 4.55724 82.8715 3.872 82.5505 3.21958C82.2512 2.60351 81.839 2.04377 81.3333 1.56694C81.1087 1.34673 80.84 1.17202 80.5433 1.05322C80.2467 0.934417 79.9281 0.873944 79.6065 0.875408C78.9108 0.854028 78.2242 1.03047 77.6332 1.38243C77.0847 1.72649 76.6213 2.18097 76.2752 2.71416C75.8939 3.30117 75.6031 3.93776 75.4118 4.60426C75.2004 5.31202 75.0413 6.03314 74.9357 6.76229C74.8322 7.46722 74.7673 8.17684 74.7412 8.88825C74.7177 9.57497 74.706 10.1767 74.706 10.6933C74.706 11.4143 74.7239 12.331 74.7597 13.4434C74.7974 14.5889 74.897 15.7318 75.0581 16.8674C75.2086 17.9751 75.4508 19.0696 75.7823 20.1406C76.0998 21.1514 76.5284 21.9162 77.0682 22.435C77.4306 22.7963 77.8873 23.0583 78.391 23.1939C78.8911 23.3195 79.4063 23.3815 79.9234 23.3784C80.841 23.3784 81.5932 23.1367 82.18 22.6532C82.7786 22.155 83.2549 21.5365 83.5748 20.8417C83.9192 20.1073 84.1507 19.3291 84.2622 18.5313C84.3717 17.7768 84.4277 17.0162 84.4299 16.2545L84.9932 16.2208V23.7442L84.5003 23.7779C84.4744 23.6129 84.4206 23.4531 84.341 23.3046C84.306 23.2308 84.2486 23.1688 84.1762 23.1267C84.1038 23.0846 84.0199 23.0644 83.9353 23.0688C83.5133 23.0689 83.0931 23.1201 82.6846 23.2212C82.2722 23.3228 81.8609 23.4298 81.4507 23.5421C81.0405 23.6544 80.623 23.7614 80.1983 23.863C79.0063 24.1486 77.8361 23.9737 76.7095 23.5421C75.5595 23.1275 74.5525 22.4154 73.8007 21.4851C73.0605 20.5597 72.485 19.5237 72.0973 18.4189C71.6937 17.275 71.4276 16.0907 71.3043 14.8891C71.1792 13.7403 71.1143 12.5863 71.1099 11.4314C71.1094 10.0668 71.2452 8.70537 71.5156 7.36558C71.7565 6.10187 72.2342 4.89026 72.9255 3.78917C73.5931 2.74617 74.5132 1.87224 75.608 1.24124C76.3362 0.829154 77.1376 0.549034 77.9719 0.414919C78.5899 0.302621 79.2209 0.270246 79.8479 0.318654V0.318654Z"
        fill="rgba(242,242,242,.1)" />
</svg>